# xmcd
#
# Track frame offsets: 
#        150
#        24467
#        40150
#        62518
#        86429
#        115117
#        134458
#        162713
#        182536
#        203797
#        239624
#        263298
#        283650
#
# Disc length: 4658 seconds
#
# Revision: 0
# Processed by: cddbd v1.5.2PL0 Copyright (c) Steve Scherf et al.
# Submitted via: ExactAudioCopyFreeDBPlugin 1.0
#
DISCID=ae12300d
DTITLE=Ronnie Earl - Blues And Forgiveness
DYEAR=1995
DGENRE=Blues
TTITLE0=Shan-Ho-Zay
TTITLE1=Robert Nighthawk Stomp
TTITLE2=Thank You Mr. T-Bone
TTITLE3=Akos
TTITLE4=Contrition
TTITLE5=Moanin'
TTITLE6=Blues For The West Side
TTITLE7=The Stumble
TTITLE8=Szeren
TTITLE9=Blues For Henry
TTITLE10=Not Now Kovitch
TTITLE11=Backstroke
TTITLE12=Rego Park Blues
EXTD=
EXTT0=
EXTT1=
EXTT2=
EXTT3=
EXTT4=
EXTT5=
EXTT6=
EXTT7=
EXTT8=
EXTT9=
EXTT10=
EXTT11=
EXTT12=
PLAYORDER=
